<?xml version="1.0" encoding="UTF-8"?>
<svg width="24px" height="24px" viewBox="0 0 24 24" version="1.1" xmlns="http://www.w3.org/2000/svg"
     xmlns:xlink="http://www.w3.org/1999/xlink">
  <!-- Generator: Sketch 46.2 (44496) - http://www.bohemiancoding.com/sketch -->
  <title>ic_message</title>
  <desc>Created with Sketch.</desc>
  <defs></defs>
  <g id="初稿" stroke="none" stroke-width="1" fill="none" fill-rule="evenodd">
    <g id="5.1-菜单配置-默认状态" transform="translate(-1392.000000, -12.000000)">
      <g id="顶部条" transform="translate(224.000000, 0.000000)">
        <g id="ic_message" transform="translate(1168.000000, 12.000000)">
          <rect id="Rectangle-7" x="0" y="0" width="24" height="24"></rect>
          <g id="message" transform="translate(3.000000, 4.000000)">
            <path
              d="M9,15.2928932 L10.7928932,13.5 L16,13.5 C16.8284271,13.5 17.5,12.8284271 17.5,12 L17.5,2 C17.5,1.17157288 16.8284271,0.5 16,0.5 L2,0.5 C1.17157288,0.5 0.5,1.17157288 0.5,2 L0.5,12 C0.5,12.8284271 1.17157288,13.5 2,13.5 L7.20710678,13.5 L9,15.2928932 Z"
              id="Combined-Shape" stroke="#8A92A3"></path>
            <rect id="Rectangle-23" fill="#8A92A3" x="3" y="3" width="12" height="1"></rect>
            <rect id="Rectangle-23" fill="#8A92A3" x="3" y="6" width="12" height="1"></rect>
            <rect id="Rectangle-23" fill="#8A92A3" x="3" y="9" width="8" height="1"></rect>
          </g>
        </g>
      </g>
    </g>
  </g>
</svg>
