<?xml version="1.0" encoding="UTF-8"?>
<svg width="24px" height="24px" viewBox="0 0 24 24" version="1.1" xmlns="http://www.w3.org/2000/svg"
     xmlns:xlink="http://www.w3.org/1999/xlink">
  <!-- Generator: Sketch 46.2 (44496) - http://www.bohemiancoding.com/sketch -->
  <title>ic_ring</title>
  <desc>Created with Sketch.</desc>
  <defs></defs>
  <g id="初稿" stroke="none" stroke-width="1" fill="none" fill-rule="evenodd">
    <g id="5.1-菜单配置-默认状态" transform="translate(-1273.000000, -12.000000)">
      <g id="顶部条" transform="translate(224.000000, 0.000000)">
        <g id="ic_ring" transform="translate(1049.000000, 12.000000)">
          <rect id="Rectangle-7" x="0" y="0" width="24" height="24"></rect>
          <g id="ring" transform="translate(4.000000, 2.000000)">
            <path
              d="M15.1045471,17.5 C14.2152588,16.0272801 13.8329714,15.1845402 13.6505793,14.3151755 C13.5185226,13.6857329 13.4978745,13.2316984 13.4997386,11.8400617 C13.4999348,11.6920209 13.4999348,11.6920209 13.5,11.5379267 L13.5,8 C13.5,4.96243388 11.0375661,2.5 8,2.5 C4.96243388,2.5 2.5,4.96243388 2.5,8 L2.5,11.5379267 C2.50006523,11.6920209 2.50006523,11.6920209 2.50026144,11.8400617 C2.50212551,13.2316984 2.48147739,13.6857329 2.34942073,14.3151755 C2.16702858,15.1845402 1.78474118,16.0272801 0.89545291,17.5 C5.48986278,17.5 5.626769,17.5 8,17.5 C10.373231,17.5 10.5101372,17.5 15.1045471,17.5 Z"
              id="Combined-Shape" stroke="#8A92A3"></path>
            <path
              d="M8,0.5 L8,0.5 L8,0.5 C8.55228475,0.5 9,0.94771525 9,1.5 L9,2.5 L7,2.5 L7,1.5 L7,1.5 C7,0.94771525 7.44771525,0.5 8,0.5 Z"
              id="Rectangle-26" fill="#8A92A3"></path>
            <path d="M7,18.5 C7,19.0522847 7.44771525,19.5 8,19.5 C8.55228475,19.5 9,19.0522847 9,18.5 L7,18.5 Z"
                  id="Rectangle-25" stroke="#8A92A3"></path>
          </g>
        </g>
      </g>
    </g>
  </g>
</svg>
